<svg width="30" height="31" viewBox="0 0 30 31" fill="none" xmlns="http://www.w3.org/2000/svg">
<path d="M29.8067 6.64C29.754 6.57669 29.688 6.52573 29.6134 6.49074C29.5388 6.45575 29.4574 6.43757 29.375 6.4375H6.21969L5.44906 2.19766C5.37825 1.80884 5.17322 1.45721 4.86972 1.20408C4.56621 0.950942 4.18349 0.812363 3.78828 0.8125H1.25C1.10082 0.8125 0.957742 0.871763 0.852252 0.977253C0.746763 1.08274 0.6875 1.22582 0.6875 1.375C0.6875 1.52418 0.746763 1.66726 0.852252 1.77275C0.957742 1.87824 1.10082 1.9375 1.25 1.9375H3.78125C3.91444 1.93533 4.04409 1.9805 4.14709 2.06496C4.2501 2.14943 4.31979 2.26771 4.34375 2.39875L7.92969 22.1284C8.05516 22.8145 8.43104 23.4294 8.98438 23.8539C8.40414 24.2279 7.95254 24.7708 7.69047 25.4094C7.42839 26.048 7.36845 26.7517 7.51872 27.4254C7.66899 28.0992 8.02224 28.7106 8.53085 29.1774C9.03946 29.6441 9.67896 29.9437 10.3631 30.0356C11.0473 30.1276 11.7432 30.0076 12.357 29.6917C12.9708 29.3759 13.473 28.8794 13.7959 28.2693C14.1187 27.6591 14.2467 26.9647 14.1626 26.2795C14.0785 25.5943 13.7863 24.9514 13.3255 24.4375H21.7995C21.2843 25.0136 20.9824 25.749 20.9442 26.521C20.9061 27.2929 21.134 28.0545 21.59 28.6786C22.046 29.3026 22.7023 29.7513 23.4493 29.9496C24.1963 30.1478 24.9887 30.0837 25.6941 29.7679C26.3995 29.4521 26.9752 28.9038 27.3249 28.2145C27.6746 27.5253 27.7771 26.7369 27.6154 25.9812C27.4536 25.2254 27.0374 24.548 26.4362 24.0623C25.835 23.5766 25.0854 23.3119 24.3125 23.3125H10.6958C10.3008 23.3123 9.91842 23.1736 9.61521 22.9205C9.312 22.6674 9.10717 22.3159 9.03641 21.9273L8.47391 18.8125H25.4516C26.1102 18.8126 26.748 18.5815 27.2538 18.1595C27.7596 17.7376 28.1012 17.1515 28.2191 16.5034L29.9291 7.10125C29.9437 7.0201 29.9404 6.93672 29.9192 6.85701C29.8981 6.7773 29.8597 6.70321 29.8067 6.64ZM13.0625 26.6875C13.0625 27.1325 12.9305 27.5675 12.6833 27.9375C12.4361 28.3075 12.0847 28.5959 11.6735 28.7662C11.2624 28.9365 10.81 28.9811 10.3735 28.8943C9.93709 28.8075 9.53618 28.5932 9.22151 28.2785C8.90684 27.9638 8.69255 27.5629 8.60573 27.1265C8.51892 26.69 8.56347 26.2376 8.73377 25.8265C8.90407 25.4153 9.19246 25.0639 9.56247 24.8167C9.93248 24.5695 10.3675 24.4375 10.8125 24.4375C11.4092 24.4375 11.9815 24.6746 12.4035 25.0965C12.8254 25.5185 13.0625 26.0908 13.0625 26.6875ZM26.5625 26.6875C26.5625 27.1325 26.4305 27.5675 26.1833 27.9375C25.9361 28.3075 25.5847 28.5959 25.1735 28.7662C24.7624 28.9365 24.31 28.9811 23.8735 28.8943C23.4371 28.8075 23.0362 28.5932 22.7215 28.2785C22.4068 27.9638 22.1925 27.5629 22.1057 27.1265C22.0189 26.69 22.0635 26.2376 22.2338 25.8265C22.4041 25.4153 22.6925 25.0639 23.0625 24.8167C23.4325 24.5695 23.8675 24.4375 24.3125 24.4375C24.9092 24.4375 25.4815 24.6746 25.9035 25.0965C26.3254 25.5185 26.5625 26.0908 26.5625 26.6875ZM27.1123 16.3023C27.0415 16.6912 26.8365 17.0428 26.533 17.2959C26.2295 17.5491 25.8468 17.6876 25.4516 17.6875H8.26437L6.42359 7.5625H28.7014L27.1123 16.3023Z" fill="white"/>
</svg>
