<svg width="11" height="18" viewBox="0 0 11 18" fill="none" xmlns="http://www.w3.org/2000/svg">
<path d="M9.9917 0.329815C9.15107 0.240639 8.30622 0.197242 7.46087 0.199815C4.65837 0.199815 2.91671 1.98481 2.91671 4.85815V6.80898H0.562541C0.452034 6.80898 0.346053 6.85288 0.267913 6.93102C0.189772 7.00916 0.145874 7.11514 0.145874 7.22565V10.434C0.145874 10.5445 0.189772 10.6505 0.267913 10.7286C0.346053 10.8067 0.452034 10.8506 0.562541 10.8506H2.91671V17.284C2.91671 17.3945 2.9606 17.5005 3.03874 17.5786C3.11689 17.6567 3.22287 17.7006 3.33337 17.7006H6.64837C6.75888 17.7006 6.86486 17.6567 6.943 17.5786C7.02114 17.5005 7.06504 17.3945 7.06504 17.284V10.8506H9.41171C9.51287 10.8507 9.61059 10.8139 9.68664 10.7472C9.7627 10.6805 9.81189 10.5884 9.82504 10.4881L10.2392 7.27981C10.2469 7.22101 10.242 7.16123 10.2247 7.10449C10.2075 7.04774 10.1783 6.99533 10.1392 6.95076C10.1001 6.90619 10.0519 6.87048 9.99785 6.84603C9.94381 6.82158 9.88518 6.80895 9.82587 6.80898H7.06504V5.17648C7.06504 4.36815 7.22754 4.03065 8.23837 4.03065H9.93754C10.048 4.03065 10.154 3.98675 10.2322 3.90861C10.3103 3.83047 10.3542 3.72449 10.3542 3.61398V0.743148C10.3543 0.641988 10.3175 0.544266 10.2508 0.468211C10.1841 0.392157 10.092 0.342966 9.9917 0.329815ZM9.52087 3.19648L8.23754 3.19731C6.44004 3.19731 6.23171 4.32731 6.23171 5.17648V7.22648C6.23171 7.33684 6.27549 7.4427 6.35345 7.52081C6.43141 7.59893 6.53718 7.64292 6.64754 7.64315H9.35254L9.04504 10.0181H6.64837C6.53787 10.0181 6.43188 10.062 6.35374 10.1402C6.2756 10.2183 6.23171 10.3243 6.23171 10.4348V16.8665H3.75004V10.4348C3.75004 10.3243 3.70614 10.2183 3.628 10.1402C3.54986 10.062 3.44388 10.0181 3.33337 10.0181H0.98004V7.64315H3.33337C3.44388 7.64315 3.54986 7.59925 3.628 7.52111C3.70614 7.44297 3.75004 7.33699 3.75004 7.22648V4.85815C3.75004 2.46315 5.13754 1.03315 7.46087 1.03315C8.30171 1.03315 9.06087 1.07898 9.52087 1.11898V3.19648Z" fill="black"/>
</svg>
