<svg width="16" height="16" viewBox="0 0 16 16" fill="none" xmlns="http://www.w3.org/2000/svg">
<path d="M8 4.5625C7.32013 4.5625 6.65552 4.76411 6.09023 5.14182C5.52493 5.51954 5.08434 6.0564 4.82416 6.68453C4.56399 7.31265 4.49591 8.00381 4.62855 8.67062C4.76119 9.33743 5.08858 9.94994 5.56932 10.4307C6.05006 10.9114 6.66257 11.2388 7.32938 11.3714C7.99619 11.5041 8.68735 11.436 9.31547 11.1758C9.9436 10.9157 10.4805 10.4751 10.8582 9.90977C11.2359 9.34448 11.4375 8.67987 11.4375 8C11.4365 7.08864 11.074 6.21489 10.4295 5.57046C9.78511 4.92603 8.91136 4.56353 8 4.5625ZM8 10.8125C7.44374 10.8125 6.89997 10.6475 6.43746 10.3385C5.97495 10.0295 5.61446 9.59021 5.40159 9.0763C5.18872 8.56238 5.13302 7.99688 5.24154 7.45131C5.35006 6.90574 5.61793 6.4046 6.01126 6.01126C6.4046 5.61793 6.90574 5.35006 7.45131 5.24154C7.99688 5.13302 8.56238 5.18872 9.0763 5.40159C9.59021 5.61446 10.0295 5.97495 10.3385 6.43746C10.6475 6.89997 10.8125 7.44374 10.8125 8C10.8125 8.74592 10.5162 9.46129 9.98874 9.98874C9.46129 10.5162 8.74592 10.8125 8 10.8125ZM11.75 0.1875H4.25C3.17294 0.188741 2.14035 0.617151 1.37875 1.37875C0.617151 2.14035 0.188741 3.17294 0.1875 4.25V11.75C0.188741 12.8271 0.617151 13.8597 1.37875 14.6213C2.14035 15.3828 3.17294 15.8113 4.25 15.8125H11.75C12.8271 15.8113 13.8597 15.3828 14.6213 14.6213C15.3828 13.8597 15.8113 12.8271 15.8125 11.75V4.25C15.8113 3.17294 15.3828 2.14035 14.6213 1.37875C13.8597 0.617151 12.8271 0.188741 11.75 0.1875ZM15.1875 11.75C15.1865 12.6614 14.824 13.5351 14.1795 14.1795C13.5351 14.824 12.6614 15.1865 11.75 15.1875H4.25C3.33864 15.1865 2.46489 14.824 1.82046 14.1795C1.17603 13.5351 0.813534 12.6614 0.8125 11.75V4.25C0.813534 3.33864 1.17603 2.46489 1.82046 1.82046C2.46489 1.17603 3.33864 0.813534 4.25 0.8125H11.75C12.6614 0.813534 13.5351 1.17603 14.1795 1.82046C14.824 2.46489 15.1865 3.33864 15.1875 4.25V11.75ZM12.6875 3.9375C12.6875 4.06111 12.6508 4.18195 12.5822 4.28473C12.5135 4.38751 12.4159 4.46762 12.3017 4.51493C12.1875 4.56223 12.0618 4.57461 11.9406 4.55049C11.8193 4.52638 11.708 4.46685 11.6206 4.37944C11.5331 4.29203 11.4736 4.18067 11.4495 4.05943C11.4254 3.93819 11.4378 3.81253 11.4851 3.69832C11.5324 3.58412 11.6125 3.48651 11.7153 3.41783C11.818 3.34916 11.9389 3.3125 12.0625 3.3125C12.2283 3.3125 12.3872 3.37835 12.5044 3.49556C12.6217 3.61277 12.6875 3.77174 12.6875 3.9375Z" fill="black"/>
</svg>
