<svg width="18" height="18" viewBox="0 0 18 18" fill="none" xmlns="http://www.w3.org/2000/svg">
<path d="M4.25005 6.50022H0.916717C0.80621 6.50022 0.700229 6.54412 0.622089 6.62226C0.543949 6.7004 0.50005 6.80638 0.50005 6.91689V16.9169C0.50005 17.0274 0.543949 17.1334 0.622089 17.2115C0.700229 17.2897 0.80621 17.3336 0.916717 17.3336H4.25005C4.36056 17.3336 4.46654 17.2897 4.54468 17.2115C4.62282 17.1334 4.66672 17.0274 4.66672 16.9169V6.91689C4.66672 6.80638 4.62282 6.7004 4.54468 6.62226C4.46654 6.54412 4.36056 6.50022 4.25005 6.50022ZM3.83338 16.5002H1.33338V7.33355H3.83338V16.5002ZM13.0001 6.50022C12.0959 6.50022 11.2167 6.79855 10.5001 7.34939V6.91689C10.5001 6.80638 10.4562 6.7004 10.378 6.62226C10.2999 6.54412 10.1939 6.50022 10.0834 6.50022H6.75005C6.63954 6.50022 6.53356 6.54412 6.45542 6.62226C6.37728 6.7004 6.33338 6.80638 6.33338 6.91689V16.9169C6.33338 17.0274 6.37728 17.1334 6.45542 17.2115C6.53356 17.2897 6.63954 17.3336 6.75005 17.3336H10.0834C10.1939 17.3336 10.2999 17.2897 10.378 17.2115C10.4562 17.1334 10.5001 17.0274 10.5001 16.9169V12.3336C10.5001 12.002 10.6317 11.6841 10.8662 11.4497C11.1006 11.2153 11.4185 11.0836 11.7501 11.0836C12.0816 11.0836 12.3995 11.2153 12.6339 11.4497C12.8684 11.6841 13.0001 12.002 13.0001 12.3336V16.9169C13.0001 17.0274 13.0439 17.1334 13.1221 17.2115C13.2002 17.2897 13.3062 17.3336 13.4167 17.3336H16.75C16.8606 17.3336 16.9665 17.2897 17.0447 17.2115C17.1228 17.1334 17.1667 17.0274 17.1667 16.9169V10.6669C17.1654 9.56223 16.726 8.50319 15.9449 7.72207C15.1638 6.94096 14.1047 6.50154 13.0001 6.50022ZM16.3334 16.5002H13.8334V12.3336C13.8334 11.781 13.6139 11.2511 13.2232 10.8604C12.8325 10.4697 12.3026 10.2502 11.7501 10.2502C11.1975 10.2502 10.6676 10.4697 10.2769 10.8604C9.88621 11.2511 9.66672 11.781 9.66672 12.3336V16.5002H7.16672V7.33355H9.66672V8.33605C9.6667 8.42235 9.69347 8.50653 9.74335 8.57695C9.79323 8.64738 9.86374 8.70058 9.94515 8.72921C10.0266 8.75784 10.1149 8.76049 10.1978 8.73679C10.2808 8.71308 10.3544 8.6642 10.4084 8.59689C10.8363 8.05445 11.4229 7.65908 12.0862 7.4659C12.7496 7.27272 13.4567 7.29138 14.109 7.51925C14.7612 7.74713 15.3261 8.17288 15.7249 8.73712C16.1236 9.30136 16.3363 9.97597 16.3334 10.6669V16.5002ZM2.89005 0.668555C2.79213 0.661654 2.69387 0.661097 2.59588 0.666889C2.28402 0.645669 1.97113 0.688708 1.67658 0.793338C1.38203 0.897968 1.1121 1.06196 0.88351 1.27516C0.65492 1.48836 0.47254 1.74622 0.347666 2.03278C0.222792 2.31933 0.158084 2.62847 0.15755 2.94106C0.154962 3.25037 0.215945 3.55692 0.336718 3.84169C0.457491 4.12647 0.635479 4.38339 0.859644 4.59654C1.08381 4.80969 1.34937 4.97452 1.63987 5.0808C1.93036 5.18708 2.23959 5.23255 2.54838 5.21439H2.57172C2.8702 5.23529 3.16988 5.1972 3.45364 5.10228C3.7374 5.00737 3.99969 4.85749 4.22553 4.66121C4.45137 4.46493 4.63634 4.22609 4.76987 3.95833C4.90341 3.69057 4.9829 3.39912 5.0038 3.10064C5.0247 2.80215 4.98661 2.50248 4.89169 2.21871C4.79678 1.93495 4.64691 1.67266 4.45063 1.44682C4.25435 1.22098 4.01551 1.03602 3.74774 0.902481C3.47998 0.768945 3.18853 0.689457 2.89005 0.668555ZM2.86088 4.38355C2.76465 4.3923 2.66778 4.39147 2.57172 4.38105H2.54838C2.34782 4.39613 2.14632 4.36922 1.95675 4.30205C1.76717 4.23487 1.59369 4.1289 1.44737 3.99091C1.30105 3.85291 1.18511 3.68593 1.10696 3.50061C1.02881 3.31529 0.990153 3.11571 0.993468 2.91461C0.996784 2.71351 1.042 2.51531 1.12622 2.33267C1.21044 2.15003 1.33182 1.98695 1.48261 1.85386C1.63339 1.72076 1.81028 1.62057 2.00197 1.55968C2.19365 1.49879 2.39593 1.47854 2.59588 1.50022C2.97824 1.46508 3.35889 1.58327 3.6541 1.82878C3.94932 2.0743 4.13491 2.42703 4.17005 2.80939C4.20519 3.19174 4.087 3.5724 3.84149 3.86761C3.59597 4.16282 3.24324 4.34841 2.86088 4.38355Z" fill="black"/>
</svg>
