<svg width="17" height="13" viewBox="0 0 17 13" fill="none" xmlns="http://www.w3.org/2000/svg">
<path d="M3.16675 0.166504H14.0001C14.6631 0.166504 15.299 0.429896 15.7679 0.898737C16.2367 1.36758 16.5001 2.00346 16.5001 2.6665V10.1665C16.5001 10.8295 16.2367 11.4654 15.7679 11.9343C15.299 12.4031 14.6631 12.6665 14.0001 12.6665H3.16675C2.50371 12.6665 1.86782 12.4031 1.39898 11.9343C0.93014 11.4654 0.666748 10.8295 0.666748 10.1665V2.6665C0.666748 2.00346 0.93014 1.36758 1.39898 0.898737C1.86782 0.429896 2.50371 0.166504 3.16675 0.166504ZM3.16675 0.999837C2.75008 0.999837 2.38341 1.1415 2.10008 1.3915L8.58342 5.58317L15.0668 1.3915C14.7834 1.1415 14.4167 0.999837 14.0001 0.999837H3.16675ZM8.58342 6.5915L1.60841 2.0665C1.54175 2.24984 1.50008 2.45817 1.50008 2.6665V10.1665C1.50008 10.6085 1.67568 11.0325 1.98824 11.345C2.3008 11.6576 2.72472 11.8332 3.16675 11.8332H14.0001C14.4421 11.8332 14.866 11.6576 15.1786 11.345C15.4912 11.0325 15.6667 10.6085 15.6667 10.1665V2.6665C15.6667 2.45817 15.6251 2.24984 15.5584 2.0665L8.58342 6.5915Z" fill="black"/>
</svg>
