<svg width="20" height="32" viewBox="0 0 20 32" fill="none" xmlns="http://www.w3.org/2000/svg">
<path d="M16.75 0.8125H3.25C2.50408 0.8125 1.78871 1.10882 1.26126 1.63626C0.733816 2.16371 0.4375 2.87908 0.4375 3.625V28.375C0.4375 29.1209 0.733816 29.8363 1.26126 30.3637C1.78871 30.8912 2.50408 31.1875 3.25 31.1875H16.75C17.4959 31.1875 18.2113 30.8912 18.7387 30.3637C19.2662 29.8363 19.5625 29.1209 19.5625 28.375V3.625C19.5625 2.87908 19.2662 2.16371 18.7387 1.63626C18.2113 1.10882 17.4959 0.8125 16.75 0.8125ZM18.4375 28.375C18.4375 28.8226 18.2597 29.2518 17.9432 29.5682C17.6268 29.8847 17.1976 30.0625 16.75 30.0625H3.25C2.80245 30.0625 2.37322 29.8847 2.05676 29.5682C1.74029 29.2518 1.5625 28.8226 1.5625 28.375V3.625C1.5625 3.17745 1.74029 2.74822 2.05676 2.43176C2.37322 2.11529 2.80245 1.9375 3.25 1.9375H16.75C17.1976 1.9375 17.6268 2.11529 17.9432 2.43176C18.2597 2.74822 18.4375 3.17745 18.4375 3.625V28.375ZM11.125 6.4375C11.125 6.66 11.059 6.87751 10.9354 7.06252C10.8118 7.24752 10.6361 7.39172 10.4305 7.47686C10.225 7.56201 9.99875 7.58429 9.78052 7.54088C9.56229 7.49748 9.36184 7.39033 9.2045 7.233C9.04717 7.07566 8.94002 6.87521 8.89662 6.65698C8.85321 6.43875 8.87549 6.21255 8.96064 6.00698C9.04578 5.80141 9.18998 5.62571 9.37498 5.5021C9.55999 5.37848 9.7775 5.3125 10 5.3125C10.2984 5.3125 10.5845 5.43103 10.7955 5.642C11.0065 5.85298 11.125 6.13913 11.125 6.4375Z" fill="white"/>
</svg>
