<svg width="31" height="31" viewBox="0 0 31 31" fill="none" xmlns="http://www.w3.org/2000/svg">
<path d="M30.1875 12.1581C30.188 11.9366 30.1447 11.7172 30.06 11.5125C29.9753 11.3078 29.8508 11.122 29.6939 10.9656L20.0344 1.30608C19.8776 1.14876 19.6913 1.02394 19.4862 0.938768C19.2811 0.853596 19.0612 0.809753 18.8391 0.809753C18.617 0.809753 18.3971 0.853596 18.1919 0.938768C17.9868 1.02394 17.8005 1.14876 17.6438 1.30608L13.5628 5.39124L5.28563 8.49483C5.0087 8.59937 4.76395 8.77457 4.57571 9.00302C4.38748 9.23147 4.26231 9.50521 4.21266 9.79702L0.944539 29.4072C0.931045 29.4878 0.935301 29.5705 0.95701 29.6493C0.978719 29.7282 1.01736 29.8013 1.07024 29.8637C1.12312 29.9261 1.18896 29.9762 1.26319 30.0105C1.33741 30.0449 1.41823 30.0626 1.50001 30.0625C1.53107 30.0622 1.56208 30.0599 1.59282 30.0555L21.2016 26.7859C21.4938 26.7374 21.7681 26.6129 21.9969 26.4248C22.2258 26.2367 22.401 25.9917 22.5052 25.7144L25.6088 17.4372L29.6869 13.3591C29.8462 13.2023 29.9725 13.0154 30.0585 12.8091C30.1444 12.6029 30.1883 12.3816 30.1875 12.1581ZM21.4519 25.3192C21.4172 25.4116 21.3587 25.4933 21.2825 25.556C21.2062 25.6187 21.1148 25.6602 21.0173 25.6764L3.13969 28.6562L11.3592 20.4367C12.049 20.9269 12.8978 21.1401 13.7373 21.0341C14.5768 20.928 15.3459 20.5104 15.8921 19.8641C16.4383 19.2178 16.7218 18.3898 16.6864 17.5443C16.6509 16.6989 16.2992 15.8976 15.7008 15.2992C15.1024 14.7008 14.3011 14.3491 13.4556 14.3136C12.6102 14.2782 11.7822 14.5617 11.1359 15.1079C10.4896 15.6541 10.072 16.4231 9.96594 17.2627C9.85988 18.1022 10.0731 18.951 10.5633 19.6408L2.34376 27.8617L5.3236 9.98265C5.33976 9.88524 5.38128 9.7938 5.44398 9.71753C5.50668 9.64125 5.58835 9.58282 5.68079 9.54812L13.7344 6.52749L24.4711 17.2656L21.4519 25.3192ZM11.0625 17.6875C11.0625 17.2425 11.1945 16.8075 11.4417 16.4375C11.6889 16.0674 12.0403 15.7791 12.4515 15.6088C12.8626 15.4385 13.315 15.3939 13.7515 15.4807C14.1879 15.5675 14.5888 15.7818 14.9035 16.0965C15.2182 16.4112 15.4325 16.8121 15.5193 17.2485C15.6061 17.685 15.5615 18.1374 15.3912 18.5485C15.2209 18.9597 14.9326 19.3111 14.5625 19.5583C14.1925 19.8055 13.7575 19.9375 13.3125 19.9375C12.7158 19.9375 12.1435 19.7004 11.7215 19.2785C11.2996 18.8565 11.0625 18.2842 11.0625 17.6875ZM28.898 12.5561L25.125 16.3291L14.6709 5.87499L18.4425 2.10343C18.4947 2.05113 18.5568 2.00964 18.6251 1.98133C18.6934 1.95302 18.7666 1.93845 18.8405 1.93845C18.9144 1.93845 18.9876 1.95302 19.0559 1.98133C19.1242 2.00964 19.1862 2.05113 19.2384 2.10343L28.898 11.763C29.0032 11.8684 29.0622 12.0113 29.0622 12.1602C29.0622 12.3092 29.0032 12.452 28.898 12.5575V12.5561Z" fill="white"/>
</svg>
