<svg width="27" height="36" viewBox="0 0 27 36" fill="none" xmlns="http://www.w3.org/2000/svg">
<path d="M9.0505 28.3228L9.04809 28.3241L9.04808 28.3241L1.13053 32.6094L9.0505 28.3228ZM9.0505 28.3228C9.56488 28.037 9.96428 27.5676 10.1236 26.9982C10.1839 26.787 10.2235 26.5767 10.2132 26.4219L10.2121 26.4056L10.2089 26.3895C10.1948 26.3188 10.1823 26.2492 10.1762 26.1756L10.1762 26.1756L10.1757 26.1705C10.1411 25.8381 10.1352 25.4118 10.2546 24.9624M9.0505 28.3228L10.2546 24.9624M10.2546 24.9624L10.2612 24.9432C10.2674 24.9254 10.277 24.8986 10.2898 24.8639C10.3156 24.7945 10.3546 24.6937 10.407 24.5702C10.5118 24.3228 10.6694 23.9865 10.8798 23.6305C11.3064 22.9086 11.9247 22.15 12.7243 21.8435L13.0673 21.712L12.8191 21.4412L11.1314 19.5993L10.9996 19.4556L10.8281 19.5484L10.3805 19.7905L10.3784 19.7916C9.53099 20.2603 8.47325 19.9522 8.01134 19.1059L10.2546 24.9624ZM8.01116 19.1055L7.64444 18.4308L7.52395 18.2091L7.30338 18.3316L6.77673 18.6242C6.77649 18.6243 6.77624 18.6244 6.77599 18.6246C6.57244 18.7351 6.31478 18.6592 6.206 18.4598L6.20555 18.4589L5.00256 16.273C5.0025 16.2729 5.00244 16.2728 5.00238 16.2727C4.89156 16.0691 4.96741 15.8112 5.16697 15.7023L5.16698 15.7023L5.16867 15.7014L5.69701 15.4078L5.91415 15.2872L5.79492 15.0693L5.36931 14.2915L5.36877 14.2905C4.90004 13.4429 5.20823 12.385 6.05488 11.9232L6.05562 11.9228L10.6953 9.37169L10.978 9.88057L11.1203 10.1366L11.3508 9.95589C13.2981 8.42904 16.3642 5.56507 17.5619 1.82221L17.5921 1.728L17.5496 1.63867C17.3979 1.31954 17.5378 0.931864 17.8808 0.78862C18.1652 0.674623 18.5149 0.809553 18.6828 1.11129C18.6828 1.11139 18.6829 1.1115 18.6829 1.1116L21.1333 5.57209L21.2165 5.72353L21.3875 5.69924C22.4784 5.54436 23.5997 6.05655 24.1562 7.07584C24.7142 8.09754 24.5529 9.3132 23.8342 10.1462L23.7207 10.2777L23.8044 10.4299L26.2773 14.9282L26.2778 14.9291C26.4427 15.226 26.3689 15.5948 26.1175 15.7775C25.8094 15.9882 25.4062 15.8967 25.2181 15.5988L25.1655 15.5154L25.0701 15.4905C21.2675 14.4949 17.2014 15.5436 14.8772 16.37L14.599 16.4689L14.7424 16.727L15.024 17.2337L13.4391 18.1035L13.1575 18.258L13.3765 18.4931L15.4751 20.7458L15.6268 20.9087L15.8061 20.7769C16.2288 20.4662 16.8018 20.0867 17.3957 19.8181C17.9986 19.5453 18.5775 19.4079 19.0328 19.5194L19.0336 19.5196C19.5692 19.6489 19.8106 19.9952 19.926 20.3228C19.9849 20.4898 20.0097 20.6506 20.0195 20.7705C20.0243 20.83 20.0254 20.8783 20.0253 20.9107C20.0253 20.9269 20.0249 20.9391 20.0246 20.9466L20.0243 20.9543L20.0243 20.9545L20.0243 20.9547L20.0243 20.9549L20.0242 20.9552L20.0242 20.9554L20.0096 21.1674L20.2167 21.2151L20.2168 21.2151L20.2171 21.2152L20.2173 21.2152L20.2176 21.2153L20.2184 21.2155L20.2286 21.2182C20.2334 21.2195 20.2397 21.2212 20.2472 21.2234C20.2549 21.2256 20.264 21.2284 20.2743 21.2316C20.315 21.2444 20.3744 21.2651 20.4449 21.2956C20.587 21.3571 20.7679 21.4557 20.9323 21.6046C21.0953 21.7523 21.2406 21.9479 21.3191 22.208C21.3975 22.4676 21.4145 22.8084 21.2944 23.2549L21.2445 23.4405L21.4101 23.536L21.4103 23.5361L21.4106 23.5362L21.4108 23.5363L21.411 23.5365L21.4113 23.5367L21.4195 23.5417C21.4274 23.5466 21.44 23.5548 21.4565 23.5661C21.4895 23.5889 21.5376 23.6242 21.5938 23.6721C21.7067 23.7684 21.8485 23.9124 21.9673 24.1038C22.1976 24.4749 22.3576 25.0475 21.9905 25.8585L21.9145 26.0264L22.0516 26.1479L22.0518 26.1481L22.0521 26.1483L22.0523 26.1485L22.0525 26.1487L22.0529 26.1491L22.0616 26.1573C22.0699 26.1654 22.083 26.1785 22.0995 26.1964C22.1328 26.2323 22.1796 26.2869 22.2301 26.3584C22.3316 26.5023 22.4442 26.709 22.4961 26.9651C22.5951 27.4542 22.4883 28.2085 21.4166 29.1331L21.4161 29.1335C20.784 29.6813 19.8645 30.1757 18.9452 30.5916L18.9335 30.5968L18.9225 30.6033C17.5484 31.403 16.0988 32.0588 15.2211 32.4391L15.2104 32.4438L15.2001 32.4494L9.92409 35.3479L9.92279 35.3487C9.44678 35.6139 8.91637 35.75 8.37139 35.75H1.11407C0.804521 35.75 0.556885 35.5024 0.556885 35.1928V33.5711C0.556885 33.1716 0.777815 32.8008 1.13034 32.6095L8.01116 19.1055Z" stroke="white" stroke-width="0.5"/>
</svg>
