<svg width="34" height="26" viewBox="0 0 34 26" fill="none" xmlns="http://www.w3.org/2000/svg">
<path d="M8.36002 7.80674L2.12893 13L8.36002 18.1933C8.44866 18.2673 8.51237 18.3669 8.54248 18.4784C8.57259 18.5899 8.56765 18.7079 8.52833 18.8165C8.48901 18.9251 8.41721 19.019 8.32269 19.0854C8.22817 19.1517 8.11551 19.1874 8.00002 19.1875C7.86829 19.1881 7.74066 19.1417 7.64002 19.0567L0.89002 13.4317C0.826814 13.3789 0.775971 13.3129 0.741082 13.2383C0.706193 13.1637 0.68811 13.0824 0.68811 13C0.68811 12.9177 0.706193 12.8363 0.741082 12.7617C0.775971 12.6871 0.826814 12.6211 0.89002 12.5683L7.64002 6.9433C7.7552 6.85421 7.90044 6.81325 8.04519 6.82904C8.18995 6.84484 8.32294 6.91615 8.41619 7.02798C8.50945 7.13982 8.5557 7.28346 8.54523 7.4287C8.53475 7.57393 8.46836 7.70945 8.36002 7.80674ZM33.11 12.5683L26.36 6.9433C26.3038 6.89279 26.2379 6.85413 26.1664 6.82964C26.0949 6.80515 26.0191 6.79533 25.9437 6.80077C25.8683 6.80621 25.7948 6.8268 25.7275 6.8613C25.6602 6.8958 25.6006 6.94351 25.5522 7.00157C25.5038 7.05964 25.4675 7.12687 25.4457 7.19925C25.4238 7.27163 25.4168 7.34767 25.425 7.42282C25.4332 7.49798 25.4565 7.57072 25.4934 7.63668C25.5304 7.70264 25.5802 7.76048 25.64 7.80674L31.8711 13L25.64 18.1933C25.5802 18.2396 25.5304 18.2974 25.4934 18.3634C25.4565 18.4293 25.4332 18.5021 25.425 18.5772C25.4168 18.6524 25.4238 18.7284 25.4457 18.8008C25.4675 18.8732 25.5038 18.9404 25.5522 18.9985C25.6006 19.0565 25.6602 19.1042 25.7275 19.1387C25.7948 19.1732 25.8683 19.1938 25.9437 19.1993C26.0191 19.2047 26.0949 19.1949 26.1664 19.1704C26.2379 19.1459 26.3038 19.1073 26.36 19.0567L33.11 13.4317C33.1732 13.3789 33.2241 13.3129 33.259 13.2383C33.2938 13.1637 33.3119 13.0824 33.3119 13C33.3119 12.9177 33.2938 12.8363 33.259 12.7617C33.2241 12.6871 33.1732 12.6211 33.11 12.5683ZM21.6927 0.0962718C21.6232 0.0709371 21.5495 0.0595345 21.4757 0.0627163C21.4018 0.065898 21.3293 0.0836013 21.2623 0.114814C21.1953 0.146028 21.1351 0.190139 21.0852 0.244626C21.0353 0.299113 20.9965 0.362909 20.9713 0.432365L11.9713 25.1824C11.9459 25.2518 11.9345 25.3255 11.9377 25.3994C11.9409 25.4732 11.9586 25.5457 11.9898 25.6127C12.021 25.6797 12.0651 25.7399 12.1196 25.7898C12.1741 25.8398 12.2379 25.8785 12.3074 25.9038C12.3692 25.9259 12.4344 25.9373 12.5 25.9375C12.6155 25.9376 12.7281 25.9021 12.8227 25.836C12.9173 25.7698 12.9892 25.6761 13.0288 25.5677L22.0288 0.817678C22.0541 0.748244 22.0655 0.674498 22.0623 0.600655C22.0591 0.526812 22.0414 0.45432 22.0102 0.387323C21.979 0.320325 21.9349 0.260136 21.8804 0.210196C21.8259 0.160256 21.7621 0.121544 21.6927 0.0962718Z" fill="white"/>
</svg>
