<svg width="18" height="16" viewBox="0 0 18 16" fill="none" xmlns="http://www.w3.org/2000/svg">
<path d="M17.75 0.990747C17.75 0.917204 17.7305 0.844974 17.6936 0.781395C17.6566 0.717816 17.6035 0.665154 17.5396 0.628757C17.4757 0.592361 17.4033 0.573527 17.3297 0.574169C17.2562 0.574811 17.1841 0.594907 17.1209 0.632414C16.5344 0.981655 15.8974 1.23802 15.2325 1.39241C14.5059 0.698681 13.5388 0.313392 12.5342 0.317414C11.9885 0.318189 11.449 0.432218 10.9497 0.652285C10.4504 0.872352 10.0022 1.19366 9.63353 1.59589C9.26483 1.99812 8.98364 2.4725 8.80775 2.98901C8.63186 3.50553 8.56509 4.05293 8.61169 4.59658C6.09263 4.32886 3.78129 3.0769 2.18086 1.11325C2.13814 1.06108 2.0834 1.02006 2.02134 0.993703C1.95928 0.967348 1.89175 0.956449 1.82454 0.96194C1.75734 0.96743 1.69248 0.989148 1.63552 1.02523C1.57856 1.06131 1.5312 1.11067 1.49752 1.16908C1.15179 1.77199 0.969926 2.45491 0.970022 3.14991C0.969004 3.91269 1.18961 4.65934 1.60502 5.29908L1.55502 5.27158C1.48973 5.23953 1.41724 5.22498 1.34464 5.22936C1.27203 5.23375 1.20182 5.25691 1.14085 5.29658C1.07734 5.33788 1.02521 5.39446 0.989242 5.46115C0.953279 5.52783 0.934635 5.60248 0.935022 5.67824C0.931688 5.77658 0.937522 5.87575 0.953355 5.97241C0.99274 6.5226 1.14809 7.05822 1.4092 7.5441C1.67031 8.02998 2.03126 8.45512 2.46836 8.79158C2.41508 8.80726 2.36548 8.83344 2.32247 8.86857C2.27946 8.9037 2.2439 8.94707 2.21789 8.99614C2.19189 9.04521 2.17595 9.09898 2.17102 9.15429C2.16609 9.20961 2.17227 9.26535 2.18919 9.31824C2.38169 9.91849 2.71611 10.4635 3.16408 10.9069C3.61205 11.3504 4.16037 11.6793 4.76252 11.8657C3.53293 12.5541 2.11679 12.8351 0.717522 12.6682C0.623756 12.6565 0.528788 12.677 0.448203 12.7264C0.367618 12.7757 0.306201 12.851 0.274032 12.9398C0.241863 13.0287 0.240852 13.1258 0.271165 13.2153C0.301478 13.3048 0.361314 13.3814 0.440855 13.4324C2.11539 14.5106 4.06504 15.0838 6.05669 15.0832C8.316 15.1082 10.5202 14.3859 12.3266 13.0286C14.133 11.6714 15.4402 9.75524 16.045 7.57824C16.3275 6.63074 16.4717 5.64658 16.4734 4.65741C16.4734 4.55741 16.4734 4.45325 16.4709 4.34741C16.9043 3.90672 17.2417 3.38102 17.4619 2.80345C17.682 2.22588 17.7801 1.60812 17.75 0.990747ZM15.73 3.93491C15.6616 4.01585 15.6267 4.11991 15.6325 4.22575C15.6781 5.27919 15.5474 6.33284 15.2459 7.34324C14.708 9.35676 13.5103 11.1316 11.8443 12.3838C10.1783 13.636 8.14035 14.2931 6.05669 14.2499C4.78504 14.25 3.52621 13.9958 2.35419 13.5024C3.73162 13.3496 5.0383 12.8125 6.12502 11.9524C6.19263 11.8993 6.24214 11.8265 6.26675 11.7441C6.29137 11.6617 6.28988 11.5737 6.26249 11.4922C6.2351 11.4106 6.18316 11.3396 6.11378 11.2887C6.04441 11.2379 5.96101 11.2098 5.87502 11.2082C5.34165 11.1996 4.8196 11.053 4.35962 10.7829C3.89964 10.5127 3.51739 10.1282 3.25002 9.66658C3.60419 9.66741 3.95586 9.61908 4.29502 9.52158C4.38441 9.49538 4.46245 9.43999 4.51666 9.36424C4.57088 9.28849 4.59815 9.19676 4.59412 9.1037C4.59009 9.01064 4.55499 8.92161 4.49443 8.85083C4.43387 8.78006 4.35134 8.73162 4.26002 8.71324C3.66351 8.59388 3.11554 8.301 2.68487 7.87136C2.25419 7.44172 1.95999 6.89446 1.83919 6.29824C2.19309 6.41301 2.56148 6.47698 2.93336 6.48824C3.02497 6.49503 3.11609 6.4696 3.19095 6.41634C3.26581 6.36309 3.31972 6.28536 3.34336 6.19658C3.37058 6.1104 3.36904 6.01771 3.33898 5.93248C3.30891 5.84725 3.25195 5.77411 3.17669 5.72408C2.75272 5.44187 2.40536 5.05894 2.16569 4.60956C1.92602 4.16018 1.80153 3.65837 1.80335 3.14908C1.80335 2.80491 1.85919 2.46325 1.97002 2.13825C3.81755 4.13327 6.37118 5.32785 9.08669 5.46741C9.15157 5.47435 9.21713 5.46424 9.27691 5.43808C9.33668 5.41192 9.3886 5.37061 9.42752 5.31824C9.46885 5.26872 9.49811 5.21027 9.513 5.14751C9.5279 5.08475 9.52802 5.01939 9.51336 4.95658C9.45835 4.72673 9.43039 4.49125 9.43002 4.25491C9.4309 3.43197 9.75809 2.64297 10.3398 2.06091C10.9216 1.47885 11.7104 1.15124 12.5334 1.14991C12.9572 1.14871 13.3768 1.23539 13.7655 1.4045C14.1542 1.57361 14.5036 1.82146 14.7917 2.13241C14.8401 2.18402 14.9008 2.22243 14.9682 2.24402C15.0356 2.2656 15.1073 2.26963 15.1767 2.25575C15.768 2.13931 16.3431 1.95155 16.8892 1.69658C16.7472 2.546 16.3422 3.32915 15.73 3.93491Z" fill="black"/>
</svg>
